<svg width="210" height="90" viewBox="0 0 210 90" fill="none" xmlns="http://www.w3.org/2000/svg">
<path fill-rule="evenodd" clip-rule="evenodd" d="M209.237 0.236107C208.701 0.102793 208.159 0.429179 208.026 0.965111L208.025 0.965144L208.025 0.966165L208.024 0.971517L208.018 0.995094L207.993 1.0929C207.97 1.1803 207.936 1.31164 207.889 1.48437C207.796 1.82984 207.654 2.34079 207.461 2.99674C207.075 4.30876 206.485 6.20013 205.672 8.50708C204.044 13.1229 201.527 19.3926 197.967 26.0104C190.827 39.2817 179.59 53.776 163.094 59.3343C152.958 62.7497 142.345 62.2923 133.926 59.3931C134.442 58.3294 134.916 57.2604 135.346 56.1942C137.054 51.951 138.071 47.6876 138.061 43.9255C138.052 40.1655 137.011 36.7889 134.467 34.521C131.76 32.107 127.811 30.8408 124.218 31.3493C120.547 31.8688 117.276 34.2457 116.148 38.9693C114.042 47.7866 120.207 55.428 129.468 59.7501C130.01 60.0028 130.563 60.2449 131.127 60.476C127.68 66.8893 122.787 72.8539 117.591 76.3904C94.6012 92.0403 66.1368 89.1102 43.2281 82.1294C31.7971 78.6461 21.8117 74.1722 14.6823 70.5674C11.1188 68.7656 8.27191 67.1824 6.31816 66.0512C5.57101 65.6185 4.9546 65.2521 4.47881 64.9649L15.604 60.4792C16.1162 60.2727 16.364 59.69 16.1575 59.1778C15.951 58.6656 15.3683 58.4178 14.8561 58.6243L1.35894 64.0664C0.865015 64.2655 0.613827 64.8168 0.787661 65.3202L5.15897 77.9788C5.33925 78.5009 5.90858 78.7779 6.43061 78.5976C6.95265 78.4174 7.2297 77.848 7.04943 77.326L3.35282 66.6212C3.85051 66.9225 4.50888 67.3146 5.316 67.782C7.29825 68.9297 10.1786 70.5313 13.7799 72.3522C20.9801 75.9929 31.0746 80.5168 42.6451 84.0425C65.7392 91.0799 94.9634 94.2132 118.717 78.0437C124.289 74.2508 129.434 67.9243 133.012 61.1925C141.888 64.3162 153.069 64.8229 163.733 61.2296C180.951 55.4278 192.505 40.3843 199.728 26.958C203.349 20.227 205.906 13.8578 207.558 9.17201C208.384 6.82816 208.985 4.90302 209.379 3.56124C209.577 2.89028 209.723 2.36501 209.82 2.00598C209.868 1.82646 209.905 1.68848 209.929 1.59462C209.941 1.54769 209.95 1.51178 209.956 1.48723L209.964 1.45894L209.966 1.45126L209.966 1.44905C209.966 1.44841 209.966 1.44794 209.053 1.22085L209.966 1.44792C210.1 0.91197 209.773 0.369421 209.237 0.236107ZM133.49 55.4472C133.055 56.5293 132.571 57.6133 132.044 58.6898C131.454 58.4514 130.877 58.2005 130.314 57.9377C121.405 53.7803 116.316 46.874 118.093 39.4339C119.019 35.5584 121.59 33.7411 124.498 33.3296C127.483 32.9072 130.848 33.9735 133.136 36.0138C135.107 37.771 136.053 40.5039 136.061 43.9307C136.07 47.3554 135.138 51.356 133.49 55.4472Z" fill="#0B0D17"/>
</svg>
