<?xml version="1.0" standalone="no"?>
<svg width="108" height="32"  version="1.1" xmlns="http://www.w3.org/2000/svg">
    <desc>
        Icon and text of educraftas
    </desc>
    <path d="M25.9843 22.1286C26.1145 21.9971 26.1874 21.8194 26.187 21.6343C26.1865 21.4492 26.1128 21.2718 25.9819 21.1409C25.851 21.01 25.6736 20.9363 25.4885 20.9358C25.3034 20.9354 25.1257 21.0083 24.9942 21.1385C23.7793 22.3549 22.3362 23.3194 20.7476 23.9766C19.159 24.6339 17.4562 24.9708 15.737 24.9682L15.7338 24.9679L15.7306 24.9682C13.142 24.9663 10.612 24.1973 8.46012 22.7583C6.30827 21.3194 4.63114 19.275 3.64056 16.8833C2.64998 14.4917 2.39039 11.8602 2.89457 9.32111C3.39875 6.78204 4.64409 4.44934 6.47329 2.61764C6.53881 2.55274 6.59087 2.47554 6.62646 2.39046C6.66206 2.30539 6.6805 2.21412 6.68072 2.1219C6.68094 2.02967 6.66294 1.93832 6.62775 1.85307C6.59256 1.76783 6.54087 1.69038 6.47566 1.62516C6.41045 1.55995 6.333 1.50827 6.24775 1.47308C6.16251 1.43789 6.07115 1.41989 5.97893 1.42011C5.88671 1.42033 5.79544 1.43877 5.71036 1.47436C5.62529 1.50996 5.54808 1.56202 5.48319 1.62754C3.49694 3.6118 2.12998 6.1304 1.54849 8.8771C0.967001 11.6238 1.19604 14.4803 2.20777 17.0992C3.21949 19.7182 4.97031 21.9868 7.24735 23.6292C9.52439 25.2716 12.2296 26.2171 15.034 26.3507V29H10.8143C10.6293 29.0009 10.4521 29.075 10.3215 29.2062C10.191 29.3374 10.1177 29.5149 10.1177 29.7C10.1177 29.885 10.191 30.0626 10.3215 30.1938C10.4521 30.3249 10.6293 30.3991 10.8143 30.4H20.6532C20.8382 30.3991 21.0154 30.3249 21.146 30.1938C21.2765 30.0626 21.3498 29.885 21.3498 29.7C21.3498 29.5149 21.2765 29.3374 21.146 29.2062C21.0154 29.075 20.8382 29.0009 20.6532 29H16.4339V26.3507C20.0325 26.1837 23.4388 24.6778 25.9843 22.1286Z" fill="#0B4EA6"/>
    <path d="M20.153 21.3388C17.3476 21.3388 13.8029 19.5369 10.9024 16.6364C8.87012 14.6041 7.35921 12.2585 6.64795 10.0314C6.318 9.05611 6.16966 8.02863 6.21028 6.99988C5.51942 8.30906 5.1133 9.74957 5.0186 11.2268C4.92159 12.7351 5.14721 14.2466 5.68044 15.6608C6.21367 17.0749 7.04225 18.3592 8.11094 19.4278C9.17962 20.4965 10.4639 21.3251 11.878 21.8583C13.2922 22.3915 14.8037 22.6171 16.312 22.5201C17.7911 22.4252 19.2333 22.0182 20.5438 21.3257C20.4151 21.3335 20.2854 21.3388 20.153 21.3388Z" fill="#01E4B3"/>
    <path d="M11.0829 4.1059C10.1003 4.1059 9.26516 4.38607 8.67422 4.97701C6.69595 6.95527 8.20107 11.6678 12.036 15.5028C14.7254 18.1922 17.8462 19.7356 20.153 19.7356C21.1356 19.7356 21.9707 19.4555 22.5617 18.8645C24.5401 16.8862 23.0349 12.1737 19.1999 8.33881C16.5105 5.64938 13.3899 4.1059 11.0829 4.1059ZM15.0005 9.83367C15.1918 10.0296 15.2982 10.293 15.2966 10.5668C15.2949 10.8406 15.1855 11.1027 14.9918 11.2963C14.7982 11.49 14.5361 11.5994 14.2623 11.6011C13.9885 11.6027 13.7251 11.4963 13.5292 11.305L12.7082 10.484L11.8872 11.305C11.6913 11.4963 11.4279 11.6027 11.1541 11.6011C10.8803 11.5994 10.6182 11.49 10.4245 11.2963C10.2309 11.1027 10.1214 10.8406 10.1198 10.5668C10.1182 10.293 10.2245 10.0296 10.4158 9.83367L11.2368 9.01268L10.4158 8.19172C10.2242 7.99588 10.1176 7.73237 10.1191 7.45838C10.1206 7.1844 10.2301 6.92207 10.4238 6.72833C10.6176 6.53459 10.8799 6.42509 11.1539 6.4236C11.4279 6.4221 11.6914 6.52874 11.8872 6.72035L12.7082 7.54132L13.5292 6.72035C13.725 6.52874 13.9885 6.4221 14.2625 6.4236C14.5365 6.42509 14.7988 6.53459 14.9925 6.72833C15.1863 6.92207 15.2958 7.1844 15.2973 7.45838C15.2988 7.73237 15.1921 7.99588 15.0005 8.19172L14.1796 9.01265L15.0005 9.83367ZM17.8672 17.2832C17.7217 17.4287 17.5363 17.5278 17.3344 17.568C17.1326 17.6081 16.9234 17.5875 16.7332 17.5088C16.5431 17.43 16.3806 17.2967 16.2663 17.1256C16.1519 16.9545 16.0909 16.7533 16.0909 16.5475C16.0909 16.3417 16.1519 16.1405 16.2663 15.9694C16.3806 15.7983 16.5431 15.665 16.7332 15.5862C16.9234 15.5075 17.1326 15.4869 17.3344 15.527C17.5363 15.5672 17.7217 15.6663 17.8672 15.8118C17.9638 15.9084 18.0404 16.0231 18.0927 16.1493C18.145 16.2756 18.1719 16.4109 18.1719 16.5475C18.1719 16.6841 18.145 16.8194 18.0927 16.9456C18.0404 17.0719 17.9638 17.1866 17.8672 17.2832ZM17.8672 14.1699C17.7217 14.3154 17.5363 14.4145 17.3344 14.4547C17.1326 14.4948 16.9234 14.4742 16.7332 14.3955C16.5431 14.3167 16.3806 14.1834 16.2663 14.0123C16.1519 13.8412 16.0909 13.64 16.0909 13.4342C16.0909 13.2284 16.1519 13.0272 16.2663 12.8561C16.3806 12.685 16.5431 12.5516 16.7332 12.4729C16.9234 12.3942 17.1326 12.3736 17.3344 12.4137C17.5363 12.4539 17.7217 12.553 17.8672 12.6985C18.0623 12.8936 18.1719 13.1583 18.1719 13.4342C18.1719 13.7101 18.0623 13.9747 17.8672 14.1699ZM19.5091 12.6985C19.6546 12.553 19.84 12.4539 20.0419 12.4137C20.2437 12.3736 20.4529 12.3942 20.643 12.4729C20.8332 12.5516 20.9957 12.685 21.11 12.8561C21.2244 13.0272 21.2854 13.2284 21.2854 13.4342C21.2854 13.64 21.2244 13.8412 21.11 14.0123C20.9957 14.1834 20.8332 14.3167 20.643 14.3955C20.4529 14.4742 20.2437 14.4948 20.0419 14.4547C19.84 14.4145 19.6546 14.3154 19.5091 14.1699C19.314 13.9747 19.2044 13.7101 19.2044 13.4342C19.2044 13.1583 19.314 12.8936 19.5091 12.6985ZM19.5091 15.8118C19.6546 15.6663 19.84 15.5672 20.0419 15.527C20.2437 15.4869 20.4529 15.5075 20.643 15.5862C20.8332 15.665 20.9957 15.7983 21.11 15.9694C21.2243 16.1405 21.2854 16.3417 21.2854 16.5475C21.2854 16.7533 21.2243 16.9545 21.11 17.1256C20.9957 17.2967 20.8332 17.43 20.643 17.5088C20.4529 17.5875 20.2437 17.6081 20.0419 17.568C19.84 17.5278 19.6546 17.4287 19.5091 17.2832C19.314 17.0881 19.2044 16.8234 19.2044 16.5475C19.2044 16.2716 19.314 16.0069 19.5091 15.8118Z" fill="#FF8605"/>
    <path d="M14.9235 1.32147C13.4446 1.41639 12.0026 1.82341 10.6923 2.51576C10.8208 2.50799 10.9506 2.50273 11.0829 2.50273C13.8884 2.50273 17.4331 4.30461 20.3336 7.20517C22.3658 9.23736 23.8767 11.5831 24.588 13.8102C24.918 14.7855 25.0663 15.8129 25.0257 16.8417C25.7165 15.5327 26.1226 14.0924 26.2173 12.6153C26.3145 11.107 26.0889 9.59534 25.5557 8.18107C25.0225 6.76681 24.1939 5.48248 23.1251 4.41372C22.0564 3.34497 20.772 2.51636 19.3578 1.98314C17.9435 1.44992 16.4318 1.22435 14.9235 1.32147Z" fill="#038DDC"/>
    <path d="M40.9953 11.954C41.1782 11.9658 41.3593 11.9122 41.5064 11.8027C41.5678 11.748 41.616 11.68 41.6472 11.604C41.6784 11.5279 41.6918 11.4457 41.6865 11.3636C41.6913 11.2805 41.6776 11.1974 41.6465 11.1202C41.6154 11.043 41.5675 10.9736 41.5064 10.9171C41.3613 10.8032 41.1793 10.7468 40.9953 10.7586H35.6954C35.597 10.7528 35.4983 10.7671 35.4055 10.8005C35.3127 10.8339 35.2276 10.8858 35.1555 10.9531C35.0891 11.023 35.0376 11.1056 35.0042 11.196C34.9708 11.2864 34.9561 11.3826 34.961 11.4788V20.1917C34.9561 20.2879 34.9708 20.3841 35.0042 20.4745C35.0376 20.5648 35.0891 20.6474 35.1555 20.7173C35.2276 20.7845 35.3127 20.8364 35.4055 20.8698C35.4983 20.9032 35.597 20.9175 35.6954 20.9117H40.9953C41.1794 20.9237 41.3614 20.8673 41.5064 20.7533C41.5676 20.6968 41.6154 20.6275 41.6465 20.5503C41.6777 20.4731 41.6913 20.39 41.6865 20.3069C41.6865 19.9133 41.4561 19.7164 40.9953 19.7164H36.4155V16.3609H40.7073C40.8913 16.3728 41.0733 16.3164 41.2184 16.2024C41.3339 16.0825 41.3985 15.9225 41.3985 15.756C41.3985 15.5895 41.3339 15.4295 41.2184 15.3095C41.0733 15.1956 40.8913 15.1392 40.7073 15.1511H36.4155V11.954H40.9953Z" fill="#0B4EA6"/>
    <path d="M48.9591 10.6866C48.7673 10.6764 48.5789 10.7409 48.4336 10.8666C48.3685 10.9284 48.3174 11.0035 48.2839 11.0868C48.2503 11.17 48.235 11.2595 48.2391 11.3492V15.0071C48.0367 14.6038 47.7182 14.2702 47.3246 14.0494C46.8989 13.8171 46.4197 13.7003 45.9348 13.7109C45.3616 13.6956 44.7967 13.8502 44.3111 14.1552C43.8255 14.4601 43.441 14.9019 43.2058 15.4248C42.9304 16.025 42.795 16.68 42.8097 17.3402C42.797 18.0002 42.9323 18.6547 43.2058 19.2556C43.4452 19.7839 43.8298 20.2333 44.3147 20.5516C44.7977 20.8612 45.3612 21.0216 45.9348 21.0125C46.422 21.0226 46.9034 20.906 47.3318 20.674C47.7315 20.4522 48.0533 20.1128 48.2535 19.7019V20.2781C48.2481 20.3733 48.2626 20.4685 48.2961 20.5578C48.3296 20.647 48.3813 20.7283 48.448 20.7965C48.5964 20.9176 48.7821 20.9837 48.9736 20.9837C49.1652 20.9837 49.3509 20.9176 49.4993 20.7965C49.5659 20.7283 49.6176 20.647 49.6511 20.5577C49.6845 20.4685 49.699 20.3732 49.6936 20.2781V11.3779C49.698 11.2844 49.6823 11.191 49.6475 11.104C49.6127 11.017 49.5598 10.9385 49.4921 10.8738C49.3454 10.7446 49.1544 10.6775 48.9591 10.6866ZM47.735 19.2124C47.5504 19.4181 47.3242 19.5823 47.0713 19.694C46.8185 19.8057 46.5448 19.8624 46.2684 19.8604C45.992 19.8583 45.7191 19.7976 45.468 19.6822C45.2168 19.5667 44.993 19.3992 44.8115 19.1908C44.4562 18.7443 44.2787 18.1274 44.2787 17.3402C44.2788 16.553 44.454 15.9458 44.8043 15.5185C45.1547 15.0914 45.6468 14.8777 46.2805 14.8775C46.9141 14.8775 47.4014 15.0936 47.7422 15.5257C48.0829 15.9576 48.2533 16.5721 48.2536 17.369C48.2536 18.1659 48.0807 18.7804 47.735 19.2124V19.2124Z" fill="#0B4EA6"/>
    <path d="M57.1677 13.7398C57.0705 13.7352 56.9733 13.7501 56.8818 13.7835C56.7904 13.8169 56.7065 13.8681 56.635 13.9342C56.5675 14.0006 56.5146 14.0804 56.4799 14.1685C56.4452 14.2566 56.4293 14.351 56.4333 14.4456V17.8299C56.4592 18.3629 56.2757 18.8849 55.9221 19.2845C55.7474 19.4675 55.5356 19.611 55.3008 19.7054C55.0661 19.7997 54.8139 19.8428 54.5611 19.8317C54.0809 19.8317 53.7257 19.6973 53.4954 19.4285C53.2649 19.1597 53.1498 18.7421 53.1499 18.1756V14.4455C53.1552 14.3503 53.1407 14.2551 53.1073 14.1658C53.0738 14.0765 53.0221 13.9952 52.9554 13.927C52.8844 13.8627 52.8014 13.8131 52.7112 13.7809C52.621 13.7488 52.5253 13.7348 52.4297 13.7398C52.232 13.7281 52.0377 13.7955 51.8897 13.927C51.823 13.9952 51.7713 14.0765 51.7378 14.1658C51.7043 14.2551 51.6898 14.3503 51.6952 14.4455V18.1899C51.6952 20.0718 52.5497 21.0127 54.2586 21.0126C54.7129 21.019 55.1614 20.9099 55.562 20.6957C55.9507 20.4848 56.2687 20.1643 56.4765 19.774V20.3214C56.4723 20.4104 56.4868 20.4993 56.519 20.5824C56.5513 20.6655 56.6006 20.7409 56.6638 20.8038C56.7294 20.8647 56.8065 20.9119 56.8905 20.9428C56.9746 20.9737 57.0639 20.9877 57.1534 20.9838C57.3486 20.9929 57.5397 20.9257 57.6863 20.7965C57.753 20.7342 57.8056 20.6582 57.8404 20.5737C57.8752 20.4892 57.8914 20.3983 57.8879 20.307V14.4457C57.8933 14.3505 57.8788 14.2552 57.8453 14.1659C57.8119 14.0767 57.7601 13.9953 57.6935 13.9272C57.6225 13.8628 57.5395 13.8132 57.4493 13.781C57.3591 13.7488 57.2634 13.7348 57.1677 13.7398Z" fill="#0B4EA6"/>
    <path d="M63.0001 17.2826L65.5635 14.9351C65.6376 14.8731 65.6977 14.7962 65.7399 14.7093C65.7821 14.6224 65.8054 14.5276 65.8084 14.4311C65.8053 14.2525 65.7331 14.0821 65.6068 13.9558C65.4805 13.8295 65.3101 13.7572 65.1316 13.7541C64.9519 13.7652 64.7827 13.8422 64.6562 13.9702L61.3726 17.0377V11.3924C61.3793 11.2953 61.3647 11.198 61.3299 11.1072C61.2951 11.0164 61.2409 10.9343 61.1712 10.8666C61.0272 10.7433 60.842 10.679 60.6526 10.6866C60.4612 10.6797 60.274 10.7438 60.127 10.8666C60.0552 10.9331 59.9992 11.0149 59.963 11.1058C59.9269 11.1968 59.9116 11.2947 59.9182 11.3924V20.2781C59.9116 20.3757 59.9269 20.4736 59.963 20.5646C59.9992 20.6555 60.0552 20.7372 60.127 20.8037C60.274 20.9265 60.4612 20.9906 60.6526 20.9837C60.842 20.9913 61.0272 20.927 61.1712 20.8037C61.241 20.736 61.2952 20.6539 61.33 20.5631C61.3648 20.4724 61.3793 20.3751 61.3726 20.2781V17.6137L64.9587 20.7821C65.0891 20.9109 65.265 20.9833 65.4483 20.9837C65.5328 20.9841 65.6165 20.9663 65.6935 20.9315C65.7705 20.8967 65.8392 20.8457 65.8948 20.7821C66.017 20.6543 66.0842 20.4837 66.0821 20.3069C66.0828 20.2041 66.0597 20.1025 66.0148 20.0101C65.9698 19.9177 65.9041 19.8369 65.8228 19.774L63.0001 17.2826Z" fill="#0B4EA6"/>
    <path d="M71.0504 13.7397L70.8488 13.7541C70.4113 13.7852 69.9871 13.9184 69.6104 14.143C69.2392 14.3709 68.9475 14.7079 68.7751 15.1079V14.4167C68.7801 14.3247 68.7653 14.2328 68.7317 14.1471C68.6982 14.0614 68.6467 13.9838 68.5806 13.9197C68.4494 13.7991 68.2763 13.7345 68.0981 13.7396C67.9067 13.7327 67.7195 13.7969 67.5725 13.9197C67.5016 13.9838 67.4461 14.0631 67.4099 14.1516C67.3738 14.2401 67.358 14.3356 67.3637 14.431V20.2924C67.3565 20.389 67.3717 20.486 67.4079 20.5758C67.4441 20.6657 67.5004 20.7461 67.5725 20.8108C67.7214 20.9293 67.9079 20.9907 68.0981 20.9836C68.2863 20.9914 68.4707 20.9299 68.6166 20.8108C68.6867 20.7448 68.7412 20.6641 68.776 20.5744C68.8109 20.4847 68.8253 20.3884 68.8181 20.2924V16.9945C68.8051 16.515 68.9605 16.0462 69.2574 15.6695C69.5501 15.3048 69.999 15.0936 70.604 15.0359L71.0359 14.9927C71.2346 14.9959 71.4282 14.9297 71.5833 14.8054C71.64 14.7407 71.6832 14.6654 71.7104 14.5838C71.7376 14.5022 71.7482 14.416 71.7416 14.3302C71.7416 13.9078 71.5112 13.711 71.0504 13.7397Z" fill="#0B4EA6"/>
    <path d="M75.5438 13.7109C75.1019 13.7135 74.6618 13.7691 74.2332 13.8766C73.8224 13.9719 73.4255 14.1196 73.0522 14.3159C72.8999 14.3963 72.7653 14.5065 72.6562 14.6398C72.5746 14.7501 72.5316 14.8843 72.5338 15.0215C72.5279 15.1682 72.5767 15.3119 72.6706 15.4248C72.7137 15.4761 72.7679 15.5169 72.829 15.5444C72.8901 15.5718 72.9566 15.585 73.0235 15.5831C73.2191 15.5504 73.4056 15.4768 73.5709 15.3672C73.8877 15.2186 74.215 15.0934 74.5502 14.9927C74.8593 14.9047 75.1793 14.8611 75.5007 14.8631C75.9902 14.8631 76.3455 14.9831 76.5664 15.2232C76.7873 15.4632 76.8977 15.8521 76.8977 16.3897V16.8073H76.5663C75.7218 16.7879 74.8775 16.853 74.0459 17.0017C73.4411 17.1314 73.0043 17.3426 72.7355 17.6353C72.4665 17.9284 72.3369 18.3341 72.3466 18.8523C72.341 19.2471 72.4567 19.6342 72.6779 19.9612C72.9047 20.2929 73.2153 20.5587 73.578 20.7317C73.9705 20.9219 74.4019 21.0181 74.8381 21.0125C75.2799 21.0225 75.7159 20.9104 76.0981 20.6885C76.4594 20.471 76.7439 20.1463 76.9119 19.7596V20.2925C76.9051 20.385 76.9182 20.478 76.9505 20.565C76.9828 20.652 77.0335 20.7309 77.0991 20.7966C77.1647 20.8622 77.2437 20.9129 77.3307 20.9452C77.4177 20.9775 77.5106 20.9906 77.6032 20.9837C77.793 20.9948 77.9794 20.93 78.1215 20.8037C78.1865 20.7361 78.2367 20.6558 78.2689 20.5678C78.3012 20.4798 78.3147 20.386 78.3088 20.2925V16.5624C78.3088 15.6025 78.0808 14.8873 77.6248 14.4167C77.1686 13.9464 76.4749 13.7112 75.5438 13.7109ZM76.8976 18.0027C76.9178 18.5141 76.7369 19.013 76.3934 19.3925C76.2286 19.5699 76.0275 19.7099 75.8039 19.8031C75.5803 19.8962 75.3394 19.9404 75.0973 19.9325C74.7546 19.944 74.4203 19.8257 74.1612 19.6012C74.0397 19.4962 73.943 19.3655 73.8783 19.2185C73.8135 19.0716 73.7823 18.912 73.7868 18.7515C73.7786 18.6256 73.7974 18.4994 73.8421 18.3814C73.8868 18.2634 73.9563 18.1563 74.0459 18.0675C74.297 17.8765 74.5962 17.7593 74.9102 17.729C75.4828 17.651 76.0605 17.6173 76.6383 17.6282H76.8975L76.8976 18.0027Z" fill="#0B4EA6"/>
    <path d="M88.3033 19.8748L87.9002 19.8459C87.5781 19.8442 87.2699 19.7147 87.0433 19.4858C86.8561 19.2748 86.7624 18.9435 86.7624 18.4921V15.0071H88.1883C88.3566 15.0178 88.5231 14.9666 88.6562 14.863C88.7131 14.8101 88.7574 14.7451 88.7861 14.6729C88.8147 14.6007 88.827 14.523 88.8219 14.4455C88.8255 14.3692 88.8126 14.2929 88.7841 14.2221C88.7555 14.1512 88.7118 14.0874 88.6562 14.035C88.5251 13.927 88.3578 13.873 88.1883 13.8837H86.7624V12.4005C86.7677 12.3046 86.7524 12.2088 86.7177 12.1194C86.6829 12.03 86.6294 11.949 86.5608 11.8819C86.4142 11.7527 86.2232 11.6856 86.028 11.6947C85.9324 11.6897 85.8367 11.7037 85.7464 11.7358C85.6562 11.7679 85.5732 11.8176 85.5023 11.8819C85.4356 11.9501 85.3839 12.0314 85.3505 12.1207C85.317 12.21 85.3026 12.3053 85.308 12.4005V13.8837H82.1971V13.4806C82.1971 12.9718 82.3123 12.5853 82.5427 12.3212C82.7732 12.0572 83.1284 11.9059 83.6085 11.8675L83.9828 11.8387C84.3861 11.7908 84.5878 11.5988 84.5878 11.2627C84.594 11.1807 84.5778 11.0985 84.541 11.025C84.5043 10.9514 84.4482 10.8892 84.3789 10.845C84.1704 10.7464 83.9375 10.7113 83.7091 10.7442L83.3348 10.773C82.5089 10.8306 81.8705 11.1115 81.4194 11.6156C80.968 12.1196 80.7424 12.8133 80.7426 13.6966V13.8837H79.8783C79.7088 13.8729 79.5415 13.9269 79.4104 14.0349C79.3041 14.1451 79.2448 14.2923 79.2448 14.4453C79.2448 14.5984 79.3041 14.7456 79.4104 14.8558C79.5415 14.9638 79.7088 15.0178 79.8783 15.007H80.7426V20.2781C80.7359 20.3751 80.7504 20.4724 80.7852 20.5631C80.82 20.6539 80.8742 20.736 80.9441 20.8037C81.0879 20.9271 81.2732 20.9914 81.4626 20.9837C81.654 20.9905 81.8412 20.9264 81.9882 20.8037C82.06 20.7371 82.116 20.6554 82.1521 20.5645C82.1883 20.4736 82.2036 20.3757 82.1971 20.2781V15.0071H85.3079V18.3914C85.3079 19.2076 85.4999 19.8244 85.8839 20.242C86.2679 20.6595 86.8487 20.8972 87.6264 20.9548L88.0153 20.9837C88.2413 21.0156 88.4714 20.9726 88.6706 20.8612C88.7427 20.8137 88.8012 20.7482 88.8404 20.6712C88.8795 20.5942 88.8979 20.5084 88.8938 20.4221C88.8979 20.3525 88.888 20.2829 88.8644 20.2173C88.8409 20.1517 88.8044 20.0915 88.757 20.0404C88.6292 19.935 88.469 19.8765 88.3033 19.8748Z" fill="#0B4EA6"/>
    <path d="M92.8973 13.7109C92.4554 13.7135 92.0154 13.7691 91.5867 13.8766C91.1759 13.9719 90.779 14.1196 90.4058 14.3159C90.2535 14.3963 90.1188 14.5065 90.0098 14.6398C89.9281 14.7501 89.8851 14.8843 89.8873 15.0215C89.8815 15.1682 89.9302 15.3119 90.0242 15.4248C90.0673 15.4761 90.1214 15.517 90.1825 15.5444C90.2437 15.5718 90.3102 15.5851 90.3772 15.5831C90.5727 15.5504 90.7592 15.4768 90.9244 15.3672C91.2412 15.2186 91.5685 15.0934 91.9037 14.9927C92.2128 14.9047 92.5328 14.8611 92.8542 14.8631C93.3437 14.8631 93.699 14.9831 93.9199 15.2232C94.1406 15.4632 94.2511 15.8521 94.2512 16.3897V16.8073H93.9199C93.0754 16.7879 92.2311 16.8531 91.3995 17.0017C90.7947 17.1314 90.3579 17.3426 90.0891 17.6354C89.8201 17.9285 89.6905 18.3341 89.7002 18.8523C89.6947 19.2471 89.8103 19.6342 90.0315 19.9613C90.2583 20.2929 90.5689 20.5587 90.9316 20.7317C91.3241 20.922 91.7555 21.0181 92.1917 21.0126C92.6335 21.0225 93.0695 20.9104 93.4517 20.6885C93.813 20.4711 94.0975 20.1464 94.2655 19.7596V20.2925C94.2586 20.3851 94.2718 20.478 94.3041 20.565C94.3364 20.652 94.3871 20.731 94.4527 20.7966C94.5183 20.8622 94.5973 20.9129 94.6843 20.9452C94.7713 20.9775 94.8642 20.9907 94.9567 20.9838C95.1466 20.9948 95.333 20.9301 95.4751 20.8037C95.5401 20.7362 95.5903 20.6558 95.6225 20.5678C95.6547 20.4798 95.6683 20.3861 95.6624 20.2925V16.5624C95.6624 15.6025 95.4344 14.8873 94.9783 14.4167C94.5221 13.9464 93.8284 13.7112 92.8973 13.7109ZM94.2511 18.0027C94.2714 18.5141 94.0904 19.013 93.747 19.3925C93.5821 19.5699 93.381 19.71 93.1574 19.8031C92.9338 19.8963 92.6929 19.9404 92.4508 19.9325C92.1082 19.944 91.7738 19.8257 91.5147 19.6012C91.3932 19.4962 91.2965 19.3655 91.2318 19.2185C91.1671 19.0716 91.1358 18.912 91.1404 18.7515C91.1321 18.6256 91.151 18.4994 91.1957 18.3814C91.2404 18.2634 91.3099 18.1563 91.3995 18.0675C91.6505 17.8765 91.9497 17.7593 92.2637 17.729C92.8363 17.651 93.414 17.6173 93.9918 17.6282H94.2511V18.0027Z" fill="#0B4EA6"/>
    <path d="M102.741 17.9666C102.546 17.682 102.273 17.4595 101.956 17.3258C101.471 17.1155 100.963 16.9609 100.443 16.8648C99.8193 16.7305 99.3944 16.5889 99.1689 16.4401C99.0623 16.3748 98.9748 16.2824 98.9154 16.1723C98.856 16.0623 98.8267 15.9385 98.8306 15.8135C98.8269 15.6744 98.8586 15.5366 98.9228 15.4132C98.9871 15.2897 99.0817 15.1847 99.1977 15.1079C99.487 14.9225 99.8267 14.8319 100.17 14.8486C100.456 14.8406 100.742 14.8846 101.012 14.9783C101.264 15.0778 101.508 15.1983 101.74 15.3384C101.851 15.4074 101.967 15.4699 102.085 15.5256C102.167 15.5628 102.255 15.5824 102.345 15.5831C102.407 15.5827 102.468 15.5683 102.525 15.5409C102.581 15.5135 102.63 15.4738 102.669 15.4248C102.761 15.3165 102.81 15.178 102.805 15.0359C102.805 14.7575 102.647 14.5127 102.33 14.3014C102.035 14.102 101.709 13.9535 101.365 13.8622C100.999 13.7612 100.621 13.7103 100.242 13.7109C99.7482 13.7025 99.258 13.7956 98.8018 13.9846C98.4064 14.1459 98.0628 14.4123 97.8081 14.755C97.5706 15.0784 97.4442 15.47 97.448 15.8712C97.4371 16.1118 97.4814 16.3518 97.5775 16.5727C97.6737 16.7936 97.819 16.9896 98.0025 17.1457C98.372 17.4577 98.9793 17.7049 99.8243 17.8873C100.2 17.9622 100.57 18.0608 100.933 18.1826C101.131 18.2421 101.311 18.3483 101.459 18.4921C101.565 18.6217 101.618 18.786 101.61 18.9531C101.614 19.0927 101.58 19.2307 101.511 19.3524C101.443 19.4741 101.342 19.575 101.221 19.6443C100.891 19.825 100.517 19.9098 100.141 19.8892C99.7922 19.8986 99.4442 19.8499 99.1113 19.7451C98.8214 19.642 98.5397 19.5168 98.2688 19.3708C98.0919 19.2505 97.8901 19.1717 97.6784 19.1403C97.6147 19.1391 97.5516 19.1528 97.494 19.1803C97.4365 19.2078 97.3862 19.2484 97.3472 19.2988C97.2592 19.4089 97.2133 19.5466 97.2175 19.6875C97.2156 19.8248 97.2531 19.9598 97.3256 20.0764C97.4211 20.2134 97.5468 20.3267 97.6929 20.4077C98.3168 20.8108 99.1184 21.0124 100.098 21.0125C100.971 21.0125 101.67 20.8228 102.193 20.4435C102.44 20.2784 102.64 20.0542 102.778 19.7912C102.915 19.5283 102.984 19.2351 102.978 18.9387C102.992 18.5988 102.909 18.2619 102.741 17.9666Z" fill="#0B4EA6"/>
</svg>