<svg width="131" height="40" viewBox="0 0 131 40" fill="none" xmlns="http://www.w3.org/2000/svg">
<path d="M32.4803 27.6605C32.6431 27.4962 32.7342 27.274 32.7337 27.0426C32.7331 26.8112 32.6409 26.5895 32.4773 26.4259C32.3137 26.2623 32.092 26.1701 31.8606 26.1695C31.6292 26.169 31.4071 26.2601 31.2427 26.4229C29.7241 27.9434 27.9202 29.1491 25.9344 29.9706C23.9487 30.7921 21.8202 31.2133 19.6713 31.21L19.6673 31.2096L19.6632 31.21C16.4274 31.2077 13.2649 30.2464 10.5751 28.4477C7.8853 26.649 5.78888 24.0935 4.55066 21.1039C3.31243 18.1144 2.98794 14.825 3.61816 11.6512C4.24839 8.47732 5.80507 5.56144 8.09157 3.27182C8.17347 3.1907 8.23854 3.0942 8.28304 2.98785C8.32753 2.88151 8.35058 2.76742 8.35086 2.65214C8.35113 2.53686 8.32863 2.42267 8.28464 2.31611C8.24065 2.20956 8.17605 2.11274 8.09453 2.03123C8.01302 1.94971 7.9162 1.88511 7.80965 1.84112C7.70309 1.79713 7.5889 1.77463 7.47362 1.7749C7.35834 1.77518 7.24425 1.79823 7.13791 1.84273C7.03157 1.88722 6.93506 1.95229 6.85394 2.03419C4.37113 4.51453 2.66242 7.66277 1.93556 11.0961C1.20871 14.5295 1.49501 18.1001 2.75966 21.3738C4.02431 24.6475 6.21284 27.4832 9.05914 29.5363C11.9054 31.5893 15.2869 32.7712 18.7924 32.9382V36.2497H13.5179C13.2865 36.2509 13.0651 36.3435 12.9019 36.5075C12.7387 36.6715 12.6471 36.8934 12.6471 37.1247C12.6471 37.3561 12.7387 37.578 12.9019 37.742C13.0651 37.906 13.2865 37.9986 13.5179 37.9997H25.8164C26.0478 37.9986 26.2693 37.906 26.4324 37.742C26.5956 37.578 26.6873 37.3561 26.6873 37.1247C26.6873 36.8934 26.5956 36.6715 26.4324 36.5075C26.2693 36.3435 26.0478 36.2509 25.8164 36.2497H20.5424V32.9381C25.0406 32.7294 29.2985 30.8471 32.4803 27.6605Z" fill="#0B4EA6"/>
<path d="M25.1913 26.6736C21.6845 26.6736 17.2537 24.4213 13.628 20.7956C11.0877 18.2553 9.19902 15.3232 8.30995 12.5393C7.89751 11.3203 7.71208 10.0359 7.76286 8.75C6.89928 10.3865 6.39163 12.1871 6.27326 14.0337C6.15199 15.919 6.43402 17.8084 7.10056 19.5761C7.7671 21.3438 8.80282 22.9491 10.1387 24.2849C11.4745 25.6208 13.0798 26.6565 14.8475 27.323C16.6152 27.9896 18.5047 28.2716 20.39 28.1503C22.2388 28.0317 24.0417 27.5229 25.6797 26.6573C25.5189 26.6671 25.3567 26.6736 25.1913 26.6736Z" fill="#01E4B3"/>
<path d="M13.8537 5.13232C12.6254 5.13232 11.5814 5.48254 10.8428 6.22122C8.36993 8.69404 10.2513 14.5848 15.045 19.3784C18.4068 22.7402 22.3077 24.6695 25.1912 24.6695C26.4195 24.6695 27.4634 24.3193 28.2021 23.5806C30.6751 21.1077 28.7936 15.2171 23.9999 10.4235C20.6382 7.06168 16.7374 5.13232 13.8537 5.13232ZM18.7507 12.292C18.9898 12.5369 19.1227 12.8662 19.1207 13.2084C19.1187 13.5507 18.9818 13.8784 18.7398 14.1204C18.4978 14.3624 18.1701 14.4993 17.8278 14.5013C17.4856 14.5033 17.1563 14.3703 16.9114 14.1312L15.8852 13.105L14.859 14.1312C14.6141 14.3703 14.2849 14.5033 13.9426 14.5013C13.6003 14.4993 13.2727 14.3624 13.0307 14.1204C12.7886 13.8784 12.6518 13.5507 12.6497 13.2084C12.6477 12.8662 12.7807 12.5369 13.0198 12.292L14.046 11.2658L13.0198 10.2396C12.7803 9.9948 12.647 9.66541 12.6489 9.32293C12.6507 8.98046 12.7876 8.65254 13.0298 8.41037C13.2719 8.16819 13.5999 8.03132 13.9423 8.02945C14.2848 8.02758 14.6142 8.16087 14.859 8.40039L15.8852 9.4266L16.9114 8.40039C17.1562 8.16087 17.4856 8.02758 17.8281 8.02945C18.1706 8.03132 18.4985 8.16819 18.7407 8.41037C18.9829 8.65254 19.1197 8.98046 19.1216 9.32293C19.1235 9.66541 18.9902 9.9948 18.7507 10.2396L17.7244 11.2658L18.7507 12.292ZM22.3339 21.6039C22.1521 21.7858 21.9203 21.9097 21.668 21.9599C21.4157 22.0101 21.1542 21.9844 20.9166 21.8859C20.6789 21.7875 20.4758 21.6208 20.3328 21.4069C20.1899 21.193 20.1136 20.9416 20.1136 20.6843C20.1136 20.4271 20.1899 20.1756 20.3328 19.9617C20.4758 19.7479 20.6789 19.5812 20.9166 19.4827C21.1542 19.3843 21.4157 19.3585 21.668 19.4087C21.9203 19.4589 22.1521 19.5828 22.3339 19.7647C22.4547 19.8855 22.5505 20.0289 22.6159 20.1866C22.6812 20.3444 22.7149 20.5135 22.7149 20.6843C22.7149 20.8551 22.6812 21.0242 22.6159 21.182C22.5505 21.3398 22.4547 21.4832 22.3339 21.6039ZM22.3339 17.7123C22.1521 17.8942 21.9203 18.0181 21.668 18.0683C21.4157 18.1185 21.1542 18.0927 20.9165 17.9943C20.6789 17.8959 20.4757 17.7292 20.3328 17.5153C20.1899 17.3014 20.1136 17.0499 20.1136 16.7927C20.1136 16.5355 20.1899 16.284 20.3328 16.0701C20.4757 15.8562 20.6789 15.6895 20.9165 15.5911C21.1542 15.4926 21.4157 15.4669 21.668 15.5171C21.9203 15.5673 22.1521 15.6912 22.3339 15.8731C22.5778 16.117 22.7148 16.4478 22.7148 16.7927C22.7148 17.1376 22.5778 17.4684 22.3339 17.7123ZM24.3864 15.8731C24.5683 15.6912 24.8 15.5673 25.0523 15.5171C25.3046 15.4669 25.5661 15.4926 25.8038 15.5911C26.0415 15.6895 26.2446 15.8562 26.3875 16.0701C26.5304 16.284 26.6067 16.5355 26.6067 16.7927C26.6067 17.0499 26.5304 17.3014 26.3875 17.5153C26.2446 17.7292 26.0415 17.8959 25.8038 17.9943C25.5661 18.0927 25.3046 18.1185 25.0523 18.0683C24.8 18.0181 24.5683 17.8942 24.3864 17.7123C24.1425 17.4684 24.0055 17.1376 24.0055 16.7927C24.0055 16.4478 24.1425 16.117 24.3864 15.8731ZM24.3864 19.7647C24.5683 19.5828 24.8 19.4589 25.0523 19.4087C25.3046 19.3585 25.5661 19.3843 25.8038 19.4827C26.0414 19.5812 26.2446 19.7479 26.3875 19.9617C26.5304 20.1756 26.6067 20.4271 26.6067 20.6843C26.6067 20.9416 26.5304 21.193 26.3875 21.4069C26.2446 21.6208 26.0414 21.7875 25.8038 21.8859C25.5661 21.9844 25.3046 22.0101 25.0523 21.9599C24.8 21.9097 24.5683 21.7858 24.3864 21.6039C24.1425 21.36 24.0055 21.0292 24.0055 20.6843C24.0055 20.3394 24.1425 20.0086 24.3864 19.7647Z" fill="#FF8605"/>
<path d="M18.6544 1.65198C16.8057 1.77062 15.0032 2.2794 13.3653 3.14484C13.526 3.13512 13.6883 3.12855 13.8536 3.12855C17.3604 3.12855 21.7913 5.3809 25.417 9.0066C27.9572 11.5468 29.8459 14.479 30.735 17.2629C31.1474 18.482 31.3329 19.7663 31.2821 21.0523C32.1456 19.416 32.6532 17.6156 32.7716 15.7693C32.893 13.8839 32.6111 11.9943 31.9446 10.2265C31.2781 8.45865 30.2423 6.85323 28.9064 5.51729C27.5704 4.18135 25.965 3.14558 24.1972 2.47906C22.4294 1.81254 20.5398 1.53058 18.6544 1.65198Z" fill="#038DDC"/>
<path d="M51.2441 14.9424C51.4728 14.9571 51.6992 14.8901 51.8831 14.7534C51.9598 14.685 52.02 14.6 52.059 14.5049C52.098 14.4098 52.1148 14.307 52.1081 14.2044C52.1141 14.1005 52.097 13.9966 52.0581 13.9001C52.0192 13.8036 51.9594 13.7169 51.8831 13.6463C51.7017 13.5039 51.4742 13.4334 51.2441 13.4482H44.6193C44.4962 13.441 44.373 13.4588 44.2569 13.5006C44.1409 13.5424 44.0346 13.6072 43.9443 13.6913C43.8614 13.7786 43.7971 13.8819 43.7553 13.9949C43.7135 14.1079 43.6951 14.2282 43.7013 14.3485V25.2395C43.6951 25.3598 43.7135 25.4801 43.7553 25.593C43.7971 25.706 43.8614 25.8092 43.9443 25.8965C44.0346 25.9806 44.1409 26.0454 44.2569 26.0872C44.373 26.129 44.4962 26.1468 44.6193 26.1396H51.2441C51.4742 26.1546 51.7018 26.0841 51.8831 25.9415C51.9595 25.8709 52.0193 25.7843 52.0582 25.6878C52.0971 25.5913 52.1142 25.4874 52.1081 25.3836C52.1081 24.8916 51.8201 24.6455 51.2441 24.6454H45.5194V20.451H50.8841C51.1142 20.4659 51.3417 20.3954 51.5231 20.253C51.6675 20.1031 51.7481 19.903 51.7481 19.6949C51.7481 19.4868 51.6675 19.2868 51.5231 19.1369C51.3417 18.9945 51.1142 18.924 50.8841 18.9388H45.5194V14.9424H51.2441Z" fill="white"/>
<path d="M61.1989 13.3582C60.9591 13.3455 60.7236 13.4262 60.542 13.5833C60.4606 13.6605 60.3968 13.7544 60.3548 13.8585C60.3129 13.9625 60.2938 14.0744 60.2989 14.1865V18.7589C60.0459 18.2547 59.6478 17.8378 59.1558 17.5618C58.6236 17.2713 58.0247 17.1254 57.4185 17.1386C56.702 17.1195 55.9959 17.3128 55.3889 17.6939C54.7819 18.0751 54.3012 18.6273 54.0072 19.281C53.663 20.0313 53.4937 20.85 53.5121 21.6752C53.4962 22.5003 53.6654 23.3184 54.0072 24.0695C54.3065 24.7299 54.7872 25.2917 55.3934 25.6895C55.9971 26.0766 56.7015 26.277 57.4185 26.2657C58.0275 26.2783 58.6292 26.1325 59.1648 25.8426C59.6644 25.5653 60.0666 25.141 60.3169 24.6274V25.3476C60.3101 25.4666 60.3282 25.5857 60.3701 25.6972C60.4119 25.8088 60.4766 25.9104 60.56 25.9956C60.7455 26.147 60.9776 26.2296 61.2171 26.2296C61.4565 26.2296 61.6886 26.147 61.8741 25.9956C61.9574 25.9104 62.022 25.8088 62.0639 25.6972C62.1057 25.5856 62.1238 25.4666 62.117 25.3476V14.2224C62.1225 14.1055 62.1028 13.9887 62.0594 13.88C62.0159 13.7713 61.9497 13.6732 61.8651 13.5922C61.6818 13.4308 61.4429 13.3469 61.1989 13.3582ZM59.6687 24.0155C59.438 24.2727 59.1552 24.4779 58.8391 24.6175C58.5231 24.7571 58.181 24.828 57.8355 24.8255C57.4899 24.8229 57.1489 24.747 56.835 24.6027C56.521 24.4584 56.2413 24.2491 56.0144 23.9885C55.5703 23.4304 55.3483 22.6593 55.3484 21.6753C55.3485 20.6913 55.5674 19.9322 56.0054 19.3981C56.4434 18.8642 57.0585 18.5971 57.8506 18.5969C58.6427 18.5969 59.2517 18.867 59.6777 19.4071C60.1036 19.947 60.3167 20.7151 60.317 21.7113C60.3169 22.7074 60.1009 23.4755 59.6687 24.0155V24.0155Z" fill="white"/>
<path d="M71.4597 17.1745C71.3381 17.1688 71.2166 17.1874 71.1023 17.2291C70.988 17.2709 70.8831 17.3349 70.7937 17.4175C70.7093 17.5005 70.6433 17.6003 70.5999 17.7104C70.5565 17.8206 70.5366 17.9385 70.5416 18.0568V22.2871C70.574 22.9534 70.3447 23.6058 69.9027 24.1054C69.6843 24.3341 69.4195 24.5135 69.126 24.6315C68.8326 24.7494 68.5174 24.8033 68.2014 24.7894C67.6012 24.7894 67.1571 24.6214 66.8693 24.2854C66.5812 23.9494 66.4372 23.4274 66.4373 22.7192V18.0567C66.4441 17.9377 66.4259 17.8186 66.3841 17.707C66.3422 17.5954 66.2776 17.4938 66.1943 17.4085C66.1055 17.3282 66.0018 17.2661 65.889 17.2259C65.7763 17.1858 65.6567 17.1683 65.5371 17.1745C65.29 17.1599 65.0472 17.2441 64.8621 17.4085C64.7788 17.4938 64.7142 17.5954 64.6723 17.707C64.6305 17.8186 64.6123 17.9377 64.619 18.0567V22.7372C64.619 25.0896 65.6871 26.2657 67.8233 26.2655C68.3912 26.2735 68.9518 26.1372 69.4526 25.8694C69.9384 25.6058 70.3359 25.2052 70.5957 24.7173V25.4015C70.5904 25.5128 70.6085 25.6239 70.6488 25.7278C70.6891 25.8317 70.7508 25.9259 70.8297 26.0045C70.9118 26.0806 71.0081 26.1397 71.1132 26.1783C71.2182 26.2169 71.3299 26.2343 71.4417 26.2295C71.6857 26.2408 71.9246 26.1569 72.1079 25.9955C72.1913 25.9175 72.257 25.8225 72.3005 25.7169C72.344 25.6113 72.3643 25.4976 72.3599 25.3835V18.0569C72.3667 17.9379 72.3485 17.8188 72.3067 17.7072C72.2648 17.5956 72.2002 17.4939 72.1169 17.4087C72.0282 17.3283 71.9244 17.2662 71.8117 17.226C71.6989 17.1858 71.5793 17.1683 71.4597 17.1745Z" fill="white"/>
<path d="M78.7502 21.6032L81.9544 18.6688C82.047 18.5914 82.1221 18.4952 82.1749 18.3866C82.2276 18.278 82.2568 18.1595 82.2605 18.0388C82.2567 17.8156 82.1663 17.6026 82.0085 17.4448C81.8507 17.2869 81.6377 17.1965 81.4145 17.1926C81.1899 17.2065 80.9784 17.3027 80.8203 17.4627L76.7158 21.2971V14.2404C76.7242 14.1191 76.7059 13.9975 76.6624 13.884C76.6189 13.7705 76.5512 13.6679 76.464 13.5832C76.2841 13.4291 76.0525 13.3487 75.8158 13.3582C75.5765 13.3496 75.3426 13.4297 75.1588 13.5832C75.069 13.6664 74.999 13.7685 74.9538 13.8822C74.9086 13.9959 74.8895 14.1183 74.8978 14.2404V25.3476C74.8895 25.4696 74.9086 25.592 74.9538 25.7057C74.999 25.8193 75.069 25.9215 75.1588 26.0046C75.3426 26.158 75.5765 26.2382 75.8158 26.2296C76.0525 26.2391 76.2841 26.1587 76.464 26.0046C76.5512 25.92 76.619 25.8174 76.6625 25.7039C76.706 25.5904 76.7242 25.4688 76.7158 25.3476V22.0171L81.1984 25.9775C81.3614 26.1386 81.5812 26.2291 81.8104 26.2296C81.916 26.2301 82.0206 26.2078 82.1169 26.1643C82.2132 26.1208 82.299 26.0571 82.3685 25.9775C82.5212 25.8178 82.6052 25.6045 82.6026 25.3836C82.6035 25.2551 82.5747 25.1281 82.5185 25.0126C82.4623 24.897 82.3801 24.796 82.2785 24.7174L78.7502 21.6032Z" fill="white"/>
<path d="M88.8131 17.1748L88.561 17.1928C88.0141 17.2318 87.4839 17.3982 87.013 17.679C86.549 17.9639 86.1843 18.3851 85.9689 18.8851V18.021C85.9751 17.9061 85.9566 17.7912 85.9147 17.6841C85.8727 17.5769 85.8083 17.48 85.7258 17.3998C85.5618 17.249 85.3453 17.1683 85.1226 17.1747C84.8833 17.1661 84.6494 17.2463 84.4656 17.3998C84.377 17.48 84.3076 17.5791 84.2624 17.6897C84.2172 17.8003 84.1975 17.9197 84.2046 18.039V25.3657C84.1957 25.4865 84.2146 25.6077 84.2598 25.72C84.3051 25.8323 84.3755 25.9328 84.4656 26.0137C84.6518 26.1619 84.8848 26.2385 85.1226 26.2297C85.3578 26.2395 85.5884 26.1626 85.7708 26.0137C85.8584 25.9313 85.9265 25.8303 85.9701 25.7182C86.0136 25.6061 86.0316 25.4857 86.0226 25.3657V21.2433C86.0063 20.644 86.2006 20.0579 86.5717 19.587C86.9377 19.1313 87.4988 18.8673 88.255 18.795L88.7949 18.741C89.0433 18.7451 89.2853 18.6623 89.4791 18.507C89.55 18.4261 89.604 18.332 89.638 18.23C89.672 18.128 89.6852 18.0202 89.677 17.913C89.677 17.385 89.389 17.1389 88.8131 17.1748Z" fill="white"/>
<path d="M94.4297 17.1387C93.8773 17.1418 93.3273 17.2114 92.7915 17.3457C92.278 17.4649 91.7819 17.6495 91.3153 17.8948C91.1249 17.9954 90.9566 18.1331 90.8203 18.2997C90.7183 18.4377 90.6645 18.6053 90.6673 18.7769C90.6599 18.9603 90.7209 19.1399 90.8383 19.281C90.8922 19.3451 90.9598 19.3962 91.0362 19.4304C91.1126 19.4647 91.1957 19.4813 91.2794 19.4789C91.5239 19.438 91.757 19.346 91.9636 19.209C92.3596 19.0232 92.7687 18.8667 93.1877 18.7409C93.5741 18.6309 93.9741 18.5763 94.3758 18.5789C94.9878 18.5789 95.4318 18.7289 95.708 19.029C95.9841 19.3291 96.1221 19.8151 96.1221 20.4872V21.0091H95.7079C94.6522 20.9849 93.5968 21.0663 92.5574 21.2522C91.8014 21.4142 91.2554 21.6782 90.9194 22.0442C90.5832 22.4105 90.4211 22.9176 90.4332 23.5654C90.4263 24.0589 90.5708 24.5427 90.8474 24.9515C91.1309 25.3661 91.5191 25.6984 91.9725 25.9146C92.4631 26.1524 93.0024 26.2726 93.5476 26.2657C94.0999 26.2781 94.6449 26.138 95.1226 25.8606C95.5743 25.5888 95.9299 25.1829 96.1399 24.6995V25.3656C96.1313 25.4813 96.1478 25.5975 96.1881 25.7062C96.2285 25.8149 96.2919 25.9137 96.3739 25.9957C96.4559 26.0777 96.5546 26.1411 96.6634 26.1814C96.7721 26.2218 96.8883 26.2383 97.0039 26.2297C97.2412 26.2435 97.4743 26.1625 97.6519 26.0046C97.7331 25.9202 97.7958 25.8197 97.8361 25.7097C97.8764 25.5997 97.8934 25.4826 97.886 25.3656V20.703C97.886 19.5032 97.601 18.6091 97.031 18.0209C96.4607 17.433 95.5936 17.1389 94.4297 17.1387ZM96.122 22.5034C96.1473 23.1426 95.9211 23.7663 95.4918 24.2406C95.2857 24.4624 95.0344 24.6374 94.7549 24.7539C94.4754 24.8703 94.1742 24.9255 93.8716 24.9156C93.4433 24.93 93.0254 24.7821 92.7015 24.5015C92.5496 24.3703 92.4288 24.2069 92.3478 24.0232C92.2669 23.8395 92.2279 23.64 92.2335 23.4394C92.2232 23.282 92.2468 23.1242 92.3027 22.9767C92.3585 22.8292 92.4454 22.6954 92.5574 22.5844C92.8712 22.3457 93.2453 22.1991 93.6377 22.1612C94.3535 22.0638 95.0757 22.0216 95.7979 22.0352H96.1219L96.122 22.5034Z" fill="white"/>
<path d="M110.379 24.8433L109.875 24.8072C109.473 24.8051 109.087 24.6432 108.804 24.3571C108.57 24.0933 108.453 23.6792 108.453 23.115V18.7587H110.235C110.446 18.7721 110.654 18.708 110.82 18.5786C110.891 18.5124 110.947 18.4312 110.983 18.341C111.018 18.2507 111.034 18.1536 111.027 18.0567C111.032 17.9613 111.016 17.866 110.98 17.7774C110.944 17.6888 110.89 17.609 110.82 17.5435C110.656 17.4086 110.447 17.341 110.235 17.3545H108.453V15.5004C108.46 15.3806 108.441 15.2608 108.397 15.1491C108.354 15.0373 108.287 14.9361 108.201 14.8522C108.018 14.6907 107.779 14.6068 107.535 14.6182C107.415 14.6119 107.296 14.6294 107.183 14.6696C107.07 14.7098 106.967 14.7718 106.878 14.8522C106.795 14.9375 106.73 15.0391 106.688 15.1507C106.646 15.2623 106.628 15.3814 106.635 15.5004V17.3544H102.746V16.8505C102.746 16.2145 102.89 15.7315 103.178 15.4014C103.466 15.0713 103.911 14.8822 104.511 14.8342L104.979 14.7982C105.483 14.7383 105.735 14.4983 105.735 14.0782C105.742 13.9757 105.722 13.873 105.676 13.7811C105.63 13.6891 105.56 13.6114 105.474 13.5561C105.213 13.4328 104.922 13.3889 104.636 13.43L104.169 13.4661C103.136 13.5381 102.338 13.8892 101.774 14.5194C101.21 15.1493 100.928 16.0164 100.928 17.1205V17.3544H99.8479C99.636 17.3409 99.4269 17.4085 99.263 17.5435C99.1302 17.6812 99.0559 17.8651 99.0559 18.0565C99.0559 18.2479 99.1302 18.4318 99.263 18.5695C99.4269 18.7045 99.636 18.7721 99.8479 18.7586H100.928V25.3474C100.92 25.4686 100.938 25.5903 100.982 25.7037C101.025 25.8172 101.093 25.9198 101.18 26.0044C101.36 26.1587 101.592 26.2391 101.828 26.2294C102.068 26.238 102.301 26.1578 102.485 26.0044C102.575 25.9213 102.645 25.8191 102.69 25.7054C102.735 25.5918 102.755 25.4694 102.746 25.3474V18.7587H106.635V22.9891C106.635 24.0093 106.875 24.7804 107.355 25.3023C107.835 25.8242 108.561 26.1213 109.533 26.1933L110.019 26.2294C110.302 26.2693 110.589 26.2156 110.838 26.0764C110.928 26.017 111.002 25.9351 111.05 25.8389C111.099 25.7426 111.122 25.6353 111.117 25.5274C111.122 25.4405 111.11 25.3534 111.081 25.2714C111.051 25.1894 111.005 25.1142 110.946 25.0503C110.786 24.9185 110.586 24.8454 110.379 24.8433Z" fill="white"/>
<path d="M116.122 17.1387C115.569 17.1418 115.019 17.2114 114.483 17.3457C113.97 17.4649 113.474 17.6495 113.007 17.8948C112.817 17.9954 112.649 18.1331 112.512 18.2998C112.41 18.4377 112.356 18.6053 112.359 18.7769C112.352 18.9603 112.413 19.1399 112.53 19.281C112.584 19.3451 112.652 19.3962 112.728 19.4305C112.805 19.4648 112.888 19.4813 112.971 19.4789C113.216 19.438 113.449 19.3461 113.655 19.209C114.051 19.0232 114.461 18.8668 114.88 18.7409C115.266 18.6309 115.666 18.5763 116.068 18.5789C116.68 18.5789 117.124 18.7289 117.4 19.029C117.676 19.329 117.814 19.8151 117.814 20.4872V21.0091H117.4C116.344 20.9849 115.289 21.0663 114.249 21.2522C113.493 21.4142 112.947 21.6782 112.611 22.0442C112.275 22.4106 112.113 22.9176 112.125 23.5654C112.118 24.0589 112.263 24.5427 112.539 24.9516C112.823 25.3662 113.211 25.6984 113.664 25.9146C114.155 26.1524 114.694 26.2727 115.24 26.2657C115.792 26.2782 116.337 26.138 116.815 25.8606C117.266 25.5888 117.622 25.183 117.832 24.6995V25.3657C117.823 25.4813 117.84 25.5975 117.88 25.7062C117.92 25.815 117.984 25.9137 118.066 25.9957C118.148 26.0778 118.247 26.1411 118.355 26.1815C118.464 26.2219 118.58 26.2383 118.696 26.2297C118.933 26.2435 119.166 26.1626 119.344 26.0047C119.425 25.9202 119.488 25.8198 119.528 25.7098C119.568 25.5998 119.585 25.4826 119.578 25.3657V20.703C119.578 19.5032 119.293 18.6091 118.723 18.0209C118.153 17.433 117.286 17.1389 116.122 17.1387ZM117.814 22.5034C117.839 23.1426 117.613 23.7663 117.184 24.2406C116.978 24.4624 116.726 24.6374 116.447 24.7539C116.167 24.8703 115.866 24.9255 115.563 24.9156C115.135 24.93 114.717 24.7821 114.393 24.5015C114.241 24.3703 114.121 24.2069 114.04 24.0232C113.959 23.8395 113.92 23.6401 113.925 23.4394C113.915 23.282 113.939 23.1242 113.995 22.9767C114.05 22.8292 114.137 22.6954 114.249 22.5844C114.563 22.3457 114.937 22.1991 115.33 22.1612C116.045 22.0638 116.768 22.0217 117.49 22.0352H117.814V22.5034Z" fill="white"/>
<path d="M128.426 22.4584C128.182 22.1027 127.842 21.8246 127.445 21.6574C126.838 21.3946 126.204 21.2013 125.554 21.0812C124.774 20.9133 124.243 20.7364 123.961 20.5503C123.828 20.4686 123.719 20.3532 123.644 20.2156C123.57 20.0781 123.533 19.9233 123.538 19.7671C123.534 19.5932 123.573 19.421 123.654 19.2667C123.734 19.1124 123.852 18.981 123.997 18.8851C124.359 18.6534 124.783 18.5401 125.212 18.561C125.57 18.551 125.927 18.6059 126.266 18.723C126.581 18.8475 126.885 18.9981 127.175 19.1731C127.314 19.2594 127.458 19.3375 127.607 19.4072C127.708 19.4537 127.819 19.4782 127.931 19.479C128.009 19.4786 128.086 19.4605 128.156 19.4263C128.226 19.392 128.287 19.3424 128.336 19.2812C128.451 19.1459 128.512 18.9727 128.507 18.795C128.507 18.4471 128.309 18.1411 127.913 17.877C127.544 17.6277 127.137 17.4421 126.707 17.3279C126.249 17.2017 125.777 17.1381 125.302 17.1388C124.685 17.1283 124.073 17.2448 123.502 17.4809C123.008 17.6825 122.579 18.0156 122.26 18.444C121.963 18.8482 121.805 19.3377 121.81 19.8392C121.796 20.14 121.852 20.44 121.972 20.7161C122.092 20.9922 122.274 21.2372 122.503 21.4323C122.965 21.8224 123.724 22.1314 124.78 22.3594C125.25 22.4529 125.713 22.5762 126.167 22.7285C126.413 22.8028 126.639 22.9355 126.824 23.1154C126.956 23.2774 127.023 23.4827 127.013 23.6915C127.017 23.866 126.974 24.0385 126.889 24.1907C126.803 24.3428 126.678 24.4689 126.526 24.5556C126.114 24.7814 125.646 24.8874 125.176 24.8617C124.74 24.8735 124.305 24.8126 123.889 24.6816C123.527 24.5526 123.175 24.3962 122.836 24.2137C122.615 24.0633 122.363 23.9648 122.098 23.9256C122.018 23.9241 121.939 23.9412 121.868 23.9756C121.796 24.0099 121.733 24.0607 121.684 24.1236C121.574 24.2613 121.517 24.4335 121.522 24.6096C121.52 24.7812 121.566 24.9499 121.657 25.0957C121.776 25.2669 121.933 25.4086 122.116 25.5098C122.896 26.0138 123.898 26.2658 125.122 26.2658C126.214 26.2658 127.087 26.0288 127.742 25.5546C128.049 25.3483 128.301 25.0679 128.472 24.7392C128.643 24.4106 128.73 24.0441 128.723 23.6735C128.74 23.2486 128.637 22.8275 128.426 22.4584Z" fill="white"/>
</svg>
