<svg width="392" height="147" viewBox="0 0 392 147" fill="none" xmlns="http://www.w3.org/2000/svg">
<path fill-rule="evenodd" clip-rule="evenodd" d="M230.111 32.9241C188.676 33.4397 145.789 38.1592 109.192 46.1907C72.139 54.3223 45.4773 64.9961 32.5561 75.3794C26.0565 80.6023 25.1886 83.9889 25.1728 85.1397C25.1623 85.9101 25.53 88.627 31.4744 92.729C43.6886 101.157 69.7349 108.415 106.714 111.791C143.103 115.113 185.919 114.315 227.432 109.487C269.024 104.65 306.024 96.1487 331.946 85.7417C344.956 80.5184 354.153 75.2201 359.814 70.3568C365.676 65.3201 366.118 62.2487 366.05 61.2877C365.641 55.5031 369.998 50.4822 375.783 50.0731C381.567 49.664 386.588 54.0217 386.997 59.8062C387.756 70.5302 381.406 79.4919 373.499 86.2852C365.39 93.252 353.841 99.5806 339.77 105.23C311.53 116.568 272.544 125.382 229.859 130.346C187.096 135.32 142.816 136.174 104.805 132.704C67.3831 129.287 36.5537 121.749 19.5473 110.013C10.8814 104.033 4.02687 95.6537 4.17481 84.8522C4.31753 74.431 10.9888 65.7703 19.4017 59.0098C36.3055 45.4262 67.0256 33.9447 104.691 25.6789C142.812 17.3129 187.129 12.4573 229.85 11.9257C272.466 11.3954 311.369 15.1936 339.505 22.9534C345.095 24.4952 348.377 30.2769 346.835 35.8672C345.293 41.4575 339.511 44.7394 333.921 43.1976C308.395 36.1575 271.653 32.4071 230.111 32.9241Z" fill="#00E0B0"/>
</svg>
