<svg width="72" height="72" viewBox="0 0 72 72" fill="none" xmlns="http://www.w3.org/2000/svg">
<path d="M0 12C0 5.37258 5.37258 0 12 0H60C66.6274 0 72 5.37258 72 12V60C72 66.6274 66.6274 72 60 72H12C5.37258 72 0 66.6274 0 60V12Z" fill="#FF8605"/>
<g clip-path="url(#clip0)">
<path d="M21.3333 41.6667H23.556C24.121 41.654 24.6647 41.4488 25.0972 41.0852C25.5297 40.7215 25.8252 40.2211 25.9347 39.6667C25.9782 39.4723 26.0001 39.2738 26 39.0747V38.6667C26 38.5783 26.0351 38.4935 26.0976 38.431C26.1601 38.3685 26.2449 38.3333 26.3333 38.3333H28C28.0939 38.3333 28.1867 38.3532 28.2725 38.3915C28.3582 38.4299 28.4348 38.4859 28.4973 38.556L33.284 43.92C33.4374 44.102 33.6431 44.2325 33.8732 44.2938C34.1032 44.3551 34.3465 44.3441 34.5702 44.2625C34.7938 44.1809 34.987 44.0325 35.1235 43.8374C35.26 43.6424 35.3332 43.4101 35.3333 43.172V42.748C35.3335 42.7042 35.325 42.6608 35.3083 42.6203C35.2916 42.5798 35.267 42.543 35.236 42.512L34.1947 41.472C34.0695 41.3468 33.9992 41.177 33.9992 41C33.9992 40.823 34.0695 40.6532 34.1947 40.528C34.3198 40.4028 34.4896 40.3325 34.6667 40.3325C34.8437 40.3325 35.0135 40.4028 35.1387 40.528L36.3747 41.7653L36.4853 41.8093C36.6902 41.8914 36.9099 41.9299 37.1305 41.9224C37.3511 41.9149 37.5677 41.8615 37.7665 41.7657C37.9653 41.6698 38.1419 41.5337 38.2852 41.3658C38.4285 41.1979 38.5353 41.0021 38.5987 40.7907C38.6163 40.733 38.618 40.6717 38.6034 40.6132C38.5888 40.5547 38.5586 40.5013 38.516 40.4587L36.8613 38.8C36.7362 38.6748 36.6658 38.505 36.6658 38.328C36.6658 38.151 36.7362 37.9812 36.8613 37.856C36.9865 37.7308 37.1563 37.6605 37.3333 37.6605C37.5104 37.6605 37.6802 37.7308 37.8053 37.856L39.512 39.564C39.543 39.595 39.5798 39.6195 39.6203 39.6363C39.6608 39.653 39.7042 39.6615 39.748 39.6613H40C40.3536 39.6613 40.6928 39.5209 40.9428 39.2708C41.1929 39.0208 41.3333 38.6816 41.3333 38.328C41.3323 38.0397 41.2388 37.7593 41.0667 37.528L37.2347 32.624C37.1921 32.57 37.134 32.5304 37.0681 32.5106C37.0023 32.4908 36.9319 32.4917 36.8667 32.5133L34.7867 33.2C34.3181 33.3562 33.8111 33.3537 33.3441 33.1929C32.877 33.0322 32.4759 32.722 32.2028 32.3105C31.9297 31.899 31.7997 31.4089 31.8329 30.9161C31.8661 30.4233 32.0607 29.9551 32.3867 29.584C32.4261 29.5386 32.4525 29.4834 32.4632 29.4242C32.474 29.365 32.4685 29.304 32.4475 29.2477C32.4265 29.1913 32.3907 29.1417 32.3438 29.104C32.297 29.0663 32.2409 29.0418 32.1813 29.0333C31.8036 28.9813 31.4189 29.0272 31.064 29.1667L26.4573 31.0027C26.4067 31.0225 26.352 31.0298 26.2979 31.024C26.2439 31.0182 26.192 30.9994 26.1467 30.9693C26.1015 30.9388 26.0645 30.8977 26.039 30.8496C26.0134 30.8015 26 30.7478 26 30.6933V30.2587C25.9999 30.0936 25.9847 29.9289 25.9547 29.7667C25.8637 29.1911 25.5737 28.6656 25.1351 28.2819C24.6965 27.8981 24.1372 27.6804 23.5547 27.6667H21.3333C20.9797 27.6667 20.6406 27.8071 20.3905 28.0572C20.1405 28.3072 20 28.6464 20 29V40.3333C20 40.687 20.1405 41.0261 20.3905 41.2761C20.6406 41.5262 20.9797 41.6667 21.3333 41.6667Z" fill="white"/>
<path d="M39.5413 31.6347L38.8879 31.8493C38.836 31.865 38.7888 31.8932 38.7502 31.9313C38.7116 31.9694 38.6829 32.0163 38.6666 32.068C38.6511 32.1191 38.6482 32.1732 38.6582 32.2257C38.6682 32.2782 38.6908 32.3275 38.7239 32.3693L42.1333 36.724C42.4791 37.1894 42.666 37.7536 42.6666 38.3333C42.6667 38.4758 42.6551 38.6181 42.6319 38.7587C42.6237 38.8118 42.6283 38.8661 42.6452 38.9171C42.6621 38.9681 42.6909 39.0143 42.7293 39.052C42.7677 39.0892 42.8146 39.1167 42.8659 39.132C42.9171 39.1473 42.9714 39.1501 43.0239 39.14L45.6039 38.6493C45.6521 38.6406 45.7016 38.6425 45.749 38.6547C45.7964 38.6669 45.8406 38.6891 45.8786 38.72C45.9166 38.7512 45.9473 38.7905 45.9682 38.835C45.9892 38.8795 46 38.9281 45.9999 38.9773V39.0747C46.001 39.3577 46.0459 39.6388 46.1333 39.908C46.2827 40.4085 46.5873 40.8485 47.0031 41.1647C47.4189 41.4808 47.9244 41.6566 48.4466 41.6667H50.6666C51.0202 41.6667 51.3594 41.5262 51.6094 41.2761C51.8595 41.0261 51.9999 40.687 51.9999 40.3333V29C51.9999 28.6464 51.8595 28.3072 51.6094 28.0572C51.3594 27.8071 51.0202 27.6667 50.6666 27.6667H48.4439C48.0677 27.6698 47.6975 27.7616 47.3635 27.9347C47.0294 28.1077 46.7408 28.3571 46.5213 28.6627C46.3258 28.9264 46.1815 29.2244 46.0959 29.5413C46.0836 29.5857 46.0622 29.6271 46.0332 29.6629C46.0042 29.6987 45.9681 29.7282 45.9272 29.7494C45.8863 29.7707 45.8415 29.7833 45.7955 29.7865C45.7495 29.7897 45.7034 29.7834 45.6599 29.768L40.3066 27.8213C39.9787 27.7041 39.6305 27.654 39.2828 27.6739C38.9351 27.6939 38.595 27.7834 38.2826 27.9373L33.6759 30.2413C33.4707 30.3453 33.3122 30.5229 33.2321 30.7385C33.152 30.9542 33.156 31.1921 33.2435 31.4049C33.331 31.6177 33.4954 31.7897 33.7041 31.8867C33.9127 31.9836 34.1502 31.9984 34.3693 31.928L39.1253 30.3667C39.2934 30.3115 39.4766 30.3254 39.6345 30.4053C39.7924 30.4852 39.9121 30.6245 39.9673 30.7927C40.0224 30.9608 40.0085 31.144 39.9287 31.3019C39.8488 31.4598 39.7094 31.5795 39.5413 31.6347Z" fill="white"/>
</g>
<defs>
<clipPath id="clip0">
<rect width="32" height="32" fill="white" transform="translate(20 20)"/>
</clipPath>
</defs>
</svg>
