<svg width="72" height="72" viewBox="0 0 72 72" fill="none" xmlns="http://www.w3.org/2000/svg">
<path d="M0 12C0 5.37258 5.37258 0 12 0H60C66.6274 0 72 5.37258 72 12V60C72 66.6274 66.6274 72 60 72H12C5.37258 72 0 66.6274 0 60V12Z" fill="#00E0B0"/>
<g clip-path="url(#clip0)">
<path d="M36 26.436C33.7517 26.4758 31.6067 27.3868 30.0171 28.9772C28.4275 30.5676 27.5174 32.7131 27.4787 34.9613C27.4509 36.6389 27.9317 38.2856 28.8577 39.6848C29.7837 41.0839 31.1116 42.17 32.6667 42.8C32.7054 42.8148 32.7465 42.8225 32.788 42.8227H34.6867C34.7751 42.8227 34.8599 42.7876 34.9224 42.725C34.9849 42.6625 35.02 42.5777 35.02 42.4893V38.124C35.0195 38.0354 34.9841 37.9506 34.9213 37.888L32.6827 35.652C32.5202 35.4636 32.4351 35.2207 32.4445 34.9721C32.4539 34.7236 32.5571 34.4878 32.7334 34.3122C32.9096 34.1366 33.1458 34.0344 33.3944 34.0259C33.643 34.0175 33.8856 34.1035 34.0733 34.2667L35.764 35.9573C35.7949 35.9885 35.8316 36.0133 35.8721 36.0302C35.9127 36.0471 35.9561 36.0558 36 36.0558C36.0439 36.0558 36.0874 36.0471 36.1279 36.0302C36.1684 36.0133 36.2051 35.9885 36.236 35.9573L37.9267 34.2667C38.1133 34.0932 38.3599 33.9988 38.6146 34.0035C38.8693 34.0081 39.1124 34.1113 39.2925 34.2915C39.4727 34.4717 39.5759 34.7147 39.5806 34.9694C39.5852 35.2241 39.4908 35.4708 39.3173 35.6573L37.0813 37.8933C37.0186 37.9559 36.9832 38.0407 36.9827 38.1293V42.4947C36.9827 42.5831 37.0178 42.6679 37.0803 42.7304C37.1428 42.7929 37.2276 42.828 37.316 42.828H39.216C39.2571 42.828 39.2978 42.8203 39.336 42.8053C40.8906 42.1749 42.2179 41.0887 43.1434 39.6896C44.0689 38.2904 44.5493 36.644 44.5213 34.9667C44.484 32.7175 43.5745 30.5707 41.9848 28.9791C40.395 27.3876 38.2492 26.4758 36 26.436Z" fill="white"/>
<path d="M34.6893 21.3107V23.8133C34.6893 24.1609 34.8274 24.4943 35.0732 24.7401C35.319 24.9859 35.6524 25.124 36 25.124C36.3476 25.124 36.681 24.9859 36.9268 24.7401C37.1726 24.4943 37.3107 24.1609 37.3107 23.8133V21.3107C37.3107 20.9631 37.1726 20.6297 36.9268 20.3839C36.681 20.1381 36.3476 20 36 20C35.6524 20 35.319 20.1381 35.0732 20.3839C34.8274 20.6297 34.6893 20.9631 34.6893 21.3107Z" fill="white"/>
<path d="M24.5826 32.9907H21.5786C21.231 32.9907 20.8976 33.1287 20.6518 33.3745C20.406 33.6203 20.2679 33.9537 20.2679 34.3013C20.2679 34.6489 20.406 34.9823 20.6518 35.2281C20.8976 35.4739 21.231 35.612 21.5786 35.612H24.5826C24.9302 35.612 25.2636 35.4739 25.5094 35.2281C25.7552 34.9823 25.8933 34.6489 25.8933 34.3013C25.8933 33.9537 25.7552 33.6203 25.5094 33.3745C25.2636 33.1287 24.9302 32.9907 24.5826 32.9907Z" fill="white"/>
<path d="M28.4 26.164L25.9027 23.6613C25.6556 23.4219 25.3243 23.2892 24.9803 23.2919C24.6363 23.2947 24.3071 23.4325 24.0638 23.6758C23.8205 23.9191 23.6827 24.2482 23.68 24.5923C23.6773 24.9363 23.8099 25.2676 24.0494 25.5147L26.552 28.0173C26.802 28.2402 27.1279 28.3589 27.4627 28.3491C27.7975 28.3392 28.1158 28.2016 28.3523 27.9644C28.5888 27.7272 28.7255 27.4085 28.7344 27.0737C28.7433 26.7389 28.6236 26.4134 28.4 26.164Z" fill="white"/>
<path d="M50.4214 32.9907H47.4174C47.0697 32.9907 46.7364 33.1287 46.4906 33.3745C46.2448 33.6203 46.1067 33.9537 46.1067 34.3013C46.1067 34.6489 46.2448 34.9823 46.4906 35.2281C46.7364 35.4739 47.0697 35.612 47.4174 35.612H50.4214C50.769 35.612 51.1023 35.4739 51.3481 35.2281C51.5939 34.9823 51.732 34.6489 51.732 34.3013C51.732 33.9537 51.5939 33.6203 51.3481 33.3745C51.1023 33.1287 50.769 32.9907 50.4214 32.9907Z" fill="white"/>
<path d="M47.9507 23.6613C47.7049 23.4156 47.3715 23.2776 47.024 23.2776C46.6764 23.2776 46.3431 23.4156 46.0973 23.6613L43.6 26.164C43.4751 26.285 43.3756 26.4296 43.3072 26.5894C43.2388 26.7492 43.2028 26.9211 43.2015 27.0949C43.2001 27.2688 43.2333 27.4412 43.2992 27.602C43.3651 27.7629 43.4624 27.9091 43.5853 28.032C43.7082 28.155 43.8544 28.2522 44.0153 28.3181C44.1762 28.384 44.3485 28.4172 44.5224 28.4159C44.6962 28.4145 44.8681 28.3786 45.0279 28.3101C45.1877 28.2417 45.3323 28.1422 45.4533 28.0173L47.956 25.5147C48.201 25.2682 48.3381 24.9345 48.3371 24.5869C48.3361 24.2393 48.1971 23.9064 47.9507 23.6613Z" fill="white"/>
<path d="M39.2773 44.4493H32.7227C32.375 44.4493 32.0417 44.5874 31.7959 44.8332C31.5501 45.079 31.412 45.4124 31.412 45.76C31.412 46.1076 31.5501 46.441 31.7959 46.6868C32.0417 46.9326 32.375 47.0707 32.7227 47.0707H39.2773C39.6249 47.0707 39.9583 46.9326 40.2041 46.6868C40.4499 46.441 40.588 46.1076 40.588 45.76C40.588 45.4124 40.4499 45.079 40.2041 44.8332C39.9583 44.5874 39.6249 44.4493 39.2773 44.4493Z" fill="white"/>
<path d="M39.2773 48.0667H32.7227C32.375 48.0667 32.0417 48.2048 31.7959 48.4506C31.5501 48.6963 31.412 49.0297 31.412 49.3773C31.412 49.7249 31.5501 50.0583 31.7959 50.3041C32.0417 50.5499 32.375 50.688 32.7227 50.688H34.3893C34.4662 50.6877 34.5408 50.7142 34.6004 50.7628C34.66 50.8114 34.7009 50.8793 34.716 50.9547C34.7766 51.2505 34.9375 51.5163 35.1714 51.7072C35.4054 51.898 35.698 52.0023 36 52.0023C36.3019 52.0023 36.5946 51.898 36.8286 51.7072C37.0625 51.5163 37.2234 51.2505 37.284 50.9547C37.2994 50.8794 37.3403 50.8117 37.3998 50.7631C37.4593 50.7145 37.5338 50.688 37.6107 50.688H39.2773C39.6249 50.688 39.9583 50.5499 40.2041 50.3041C40.4499 50.0583 40.588 49.7249 40.588 49.3773C40.588 49.0297 40.4499 48.6963 40.2041 48.4506C39.9583 48.2048 39.6249 48.0667 39.2773 48.0667Z" fill="white"/>
</g>
<defs>
<clipPath id="clip0">
<rect width="32" height="32" fill="white" transform="translate(20 20)"/>
</clipPath>
</defs>
</svg>
