<svg width="72" height="72" viewBox="0 0 72 72" fill="none" xmlns="http://www.w3.org/2000/svg">
<path d="M0 12C0 5.37258 5.37258 0 12 0H60C66.6274 0 72 5.37258 72 12V60C72 66.6274 66.6274 72 60 72H12C5.37258 72 0 66.6274 0 60V12Z" fill="#038DDC"/>
<g clip-path="url(#clip0)">
<path d="M26.6667 22.6667H32.6667C33.1971 22.6667 33.7058 22.8774 34.0809 23.2525C34.456 23.6275 34.6667 24.1362 34.6667 24.6667V26.6667C34.6667 27.0203 34.8072 27.3594 35.0572 27.6095C35.3073 27.8595 35.6464 28 36 28C36.3537 28 36.6928 27.8595 36.9429 27.6095C37.1929 27.3594 37.3334 27.0203 37.3334 26.6667V24.6667C37.3334 23.429 36.8417 22.242 35.9665 21.3668C35.0914 20.4917 33.9044 20 32.6667 20H26.6667C26.3131 20 25.9739 20.1405 25.7239 20.3905C25.4739 20.6406 25.3334 20.9797 25.3334 21.3333C25.3334 21.687 25.4739 22.0261 25.7239 22.2761C25.9739 22.5262 26.3131 22.6667 26.6667 22.6667Z" fill="white"/>
<path d="M46 30H26C24.4087 30 22.8826 30.6321 21.7574 31.7574C20.6322 32.8826 20 34.4087 20 36V49.2267C19.9987 49.5924 20.0706 49.9547 20.2114 50.2922C20.3522 50.6297 20.5591 50.9357 20.82 51.192C21.3471 51.7127 22.0591 52.0032 22.8 52H22.8387C25.4374 51.9653 25.836 51.2 28.428 46.1853L29.392 44.3267C29.6875 43.8227 30.1093 43.4045 30.6157 43.1134C31.1222 42.8223 31.6958 42.6683 32.28 42.6667H39.7187C40.2946 42.6664 40.8608 42.8154 41.362 43.0991C41.8632 43.3827 42.2824 43.7914 42.5787 44.2853C43.0067 45.104 43.3787 45.8333 43.716 46.4813C46.124 51.152 46.5587 52 49.1454 52C49.5204 52.0013 49.892 51.9283 50.2387 51.7853C50.5854 51.6423 50.9003 51.432 51.1654 51.1667C51.4296 50.9063 51.6395 50.596 51.7827 50.2538C51.926 49.9116 51.9999 49.5443 52 49.1733V36C52 34.4087 51.3679 32.8826 50.2427 31.7574C49.1174 30.6321 47.5913 30 46 30ZM29.6667 38H28.6667C28.4899 38 28.3203 38.0702 28.1953 38.1953C28.0703 38.3203 28 38.4899 28 38.6667V39.6667C28 39.9319 27.8947 40.1862 27.7071 40.3738C27.5196 40.5613 27.2652 40.6667 27 40.6667C26.7348 40.6667 26.4804 40.5613 26.2929 40.3738C26.1054 40.1862 26 39.9319 26 39.6667V38.6667C26 38.4899 25.9298 38.3203 25.8048 38.1953C25.6797 38.0702 25.5102 38 25.3334 38H24.3334C24.0681 38 23.8138 37.8946 23.6262 37.7071C23.4387 37.5196 23.3334 37.2652 23.3334 37C23.3334 36.7348 23.4387 36.4804 23.6262 36.2929C23.8138 36.1054 24.0681 36 24.3334 36H25.3334C25.5102 36 25.6797 35.9298 25.8048 35.8047C25.9298 35.6797 26 35.5101 26 35.3333V34.3333C26 34.0681 26.1054 33.8138 26.2929 33.6262C26.4804 33.4387 26.7348 33.3333 27 33.3333C27.2652 33.3333 27.5196 33.4387 27.7071 33.6262C27.8947 33.8138 28 34.0681 28 34.3333V35.3333C28 35.5101 28.0703 35.6797 28.1953 35.8047C28.3203 35.9298 28.4899 36 28.6667 36H29.6667C29.9319 36 30.1863 36.1054 30.3738 36.2929C30.5613 36.4804 30.6667 36.7348 30.6667 37C30.6667 37.2652 30.5613 37.5196 30.3738 37.7071C30.1863 37.8946 29.9319 38 29.6667 38ZM41.3334 38C41.0696 38 40.8119 37.9218 40.5926 37.7753C40.3733 37.6288 40.2024 37.4205 40.1015 37.1769C40.0006 36.9333 39.9742 36.6652 40.0256 36.4065C40.0771 36.1479 40.2041 35.9103 40.3905 35.7239C40.577 35.5374 40.8146 35.4104 41.0732 35.359C41.3319 35.3075 41.6 35.3339 41.8436 35.4348C42.0872 35.5357 42.2955 35.7066 42.442 35.9259C42.5885 36.1452 42.6667 36.403 42.6667 36.6667C42.6667 37.0203 42.5262 37.3594 42.2762 37.6095C42.0261 37.8595 41.687 38 41.3334 38ZM44.6667 40.6667C44.403 40.6667 44.1452 40.5885 43.9259 40.442C43.7067 40.2955 43.5358 40.0872 43.4348 39.8436C43.3339 39.5999 43.3075 39.3319 43.359 39.0732C43.4104 38.8146 43.5374 38.577 43.7239 38.3905C43.9103 38.2041 44.1479 38.0771 44.4066 38.0256C44.6652 37.9742 44.9333 38.0006 45.1769 38.1015C45.4206 38.2024 45.6288 38.3733 45.7753 38.5926C45.9218 38.8118 46 39.0696 46 39.3333C46 39.687 45.8595 40.0261 45.6095 40.2761C45.3594 40.5262 45.0203 40.6667 44.6667 40.6667ZM44.6667 35.3333C44.403 35.3333 44.1452 35.2551 43.9259 35.1086C43.7067 34.9621 43.5358 34.7539 43.4348 34.5102C43.3339 34.2666 43.3075 33.9985 43.359 33.7399C43.4104 33.4812 43.5374 33.2437 43.7239 33.0572C43.9103 32.8707 44.1479 32.7437 44.4066 32.6923C44.6652 32.6408 44.9333 32.6672 45.1769 32.7682C45.4206 32.8691 45.6288 33.04 45.7753 33.2592C45.9218 33.4785 46 33.7363 46 34C46 34.3536 45.8595 34.6928 45.6095 34.9428C45.3594 35.1929 45.0203 35.3333 44.6667 35.3333ZM48 38C47.7363 38 47.4785 37.9218 47.2593 37.7753C47.04 37.6288 46.8691 37.4205 46.7682 37.1769C46.6673 36.9333 46.6409 36.6652 46.6923 36.4065C46.7438 36.1479 46.8707 35.9103 47.0572 35.7239C47.2437 35.5374 47.4813 35.4104 47.7399 35.359C47.9985 35.3075 48.2666 35.3339 48.5103 35.4348C48.7539 35.5357 48.9621 35.7066 49.1086 35.9259C49.2552 36.1452 49.3334 36.403 49.3334 36.6667C49.3334 37.0203 49.1929 37.3594 48.9428 37.6095C48.6928 37.8595 48.3536 38 48 38Z" fill="white"/>
</g>
<defs>
<clipPath id="clip0">
<rect width="32" height="32" fill="white" transform="translate(20 20)"/>
</clipPath>
</defs>
</svg>
