<svg width="14" height="20" viewBox="0 0 14 20" fill="none" xmlns="http://www.w3.org/2000/svg">
<path fill-rule="evenodd" clip-rule="evenodd" d="M0.00845931 8.69458C0.00845931 8.07594 0.015909 7.4573 0.0233933 6.83578L0.0233934 6.83577C0.0271878 6.52068 0.030991 6.20485 0.0338368 5.88791C0.0338368 2.48261 2.16556 -0.000213623 5.10936 -0.000213623H8.89063C11.8344 -0.000213623 13.9662 2.48261 13.9662 5.88791C13.9915 7.25199 14 8.61608 14 9.98997C14 11.3639 13.9915 12.7476 13.9662 14.1117C13.9662 17.517 11.8344 19.9998 8.89063 19.9998H5.10936C2.16556 19.9998 0.0338368 17.517 0.0338368 14.1018C0.0169184 12.8163 0 11.5013 0 10.1666L0.00845931 8.69458ZM8.28 17.64V17.8C8.28 18.4736 7.7168 19 7 19C6.30027 19 5.72 18.4736 5.72 17.8V17.64C5.72 16.984 6.30027 16.44 7 16.44C7.7168 16.44 8.28 16.984 8.28 17.64ZM2.01671 6.44343C2.01136 6.84741 2.00604 7.24953 2.00604 7.65165L2 8.60847C2 9.47599 2.01208 10.3307 2.02417 11.1664C2.02417 13.3862 3.54683 15 5.64955 15H8.35045C10.4532 15 11.9758 13.3862 11.9758 11.1727C11.994 10.2861 12 9.38668 12 8.49365C12 7.60062 11.994 6.71397 11.9758 5.82731C11.9758 3.61387 10.4532 2.00003 8.35045 2.00003H5.64955C3.54683 2.00003 2.02417 3.61387 2.02417 5.82731C2.02214 6.03333 2.01942 6.23862 2.01671 6.44343Z" fill="#FF8605"/>
</svg>
