<svg width="484" height="177" viewBox="0 0 484 177" fill="none" xmlns="http://www.w3.org/2000/svg">
<path fill-rule="evenodd" clip-rule="evenodd" d="M470.458 3.90137C472.755 6.15929 472.787 9.85161 470.529 12.1484L433.615 49.6975C420.811 62.7222 401.949 67.7762 384.348 62.8986L358.816 55.8234C345.299 52.0776 330.814 55.9589 320.981 65.9612L302.407 84.8545C289.603 97.8792 270.741 102.933 253.14 98.0556L227.608 90.9803C214.092 87.2346 199.607 91.1158 189.773 101.118L171.2 120.011C158.396 133.036 139.534 138.09 121.933 133.213L96.4009 126.137C82.884 122.392 68.399 126.273 58.5659 136.275L21.6522 173.824C19.3943 176.121 15.7019 176.153 13.4052 173.895C11.1084 171.637 11.0769 167.944 13.3348 165.648L50.2484 128.099C63.0527 115.074 81.9145 110.02 99.5157 114.897L125.047 121.973C138.564 125.718 153.049 121.837 162.883 111.835L181.456 92.9415C194.26 79.9169 213.122 74.8629 230.723 79.7404L256.255 86.8157C269.772 90.5615 284.257 86.6802 294.09 76.6778L312.664 57.7846C325.468 44.7599 344.33 39.7059 361.931 44.5835L387.463 51.6587C400.979 55.4045 415.465 51.5232 425.298 41.5209L462.211 3.97175C464.469 1.67495 468.162 1.64344 470.458 3.90137Z" fill="#00E0B0"/>
</svg>
