<svg width="501" height="183" viewBox="0 0 501 183" fill="none" xmlns="http://www.w3.org/2000/svg">
<path fill-rule="evenodd" clip-rule="evenodd" d="M337.665 36.7605C284.799 34.3755 225.818 37.9002 172.154 46.6626C118.249 55.4645 74.5106 68.7706 48.7673 83.4873C35.7057 90.9542 29.3068 97.6437 27.0709 102.534C26.0683 104.727 25.9681 106.392 26.2508 107.79C26.551 109.274 27.4638 111.312 29.8495 113.839C34.871 119.156 44.7661 124.881 60.3149 130.022C75.5886 135.071 95.2449 139.213 118.613 142.074C165.343 147.797 222.599 147.878 279.309 142.212C336.078 136.541 387.683 125.571 424.296 111.642C442.656 104.657 455.995 97.3981 464.415 90.501C473.107 83.381 474.684 78.2852 474.493 75.5475C474.088 69.7627 478.45 64.7452 484.235 64.3406C490.019 63.9361 495.037 68.2978 495.441 74.0826C496.346 87.0124 488.333 98.0543 477.722 106.746C466.839 115.661 451.162 123.889 431.763 131.269C392.86 146.07 339.294 157.324 281.397 163.108C223.44 168.899 164.601 168.863 116.061 162.919C91.7941 159.947 70.6973 155.572 53.7229 149.96C37.0236 144.439 23.1755 137.357 14.5819 128.257C10.1601 123.575 6.9171 118.13 5.66777 111.954C4.40101 105.692 5.35745 99.5216 7.97234 93.8022C12.9713 82.8684 24.0501 73.4281 38.3451 65.2561C67.3148 48.695 113.955 34.8875 168.77 25.9371C223.827 16.9472 284.259 13.3298 338.611 15.7819C370.666 17.228 399.485 20.7344 423.265 26.053C428.924 27.3187 432.486 32.9325 431.22 38.5917C429.954 44.2508 424.341 47.8124 418.681 46.5467C396.398 41.5627 368.847 38.1673 337.665 36.7605Z" fill="#00E0B0"/>
</svg>
